# xmcd CD database file
#
# Track frame offsets:
#	150
#	23005
#	73145
#	90025
#	104650
#	146200
#	159750
#	175572
#	258645
#	271720
#	286940
#
# Disc length: 4092 seconds
#
# Revision: 1
# Processed by: cddbd v1.5.1PL2 Copyright (c) Steve Scherf et al.
# Submitted via: CDex 1.51
#
DISCID=8d0ffa0b
DTITLE=阿保剛 - メモリーズオフ
DYEAR=1999
DGENRE=Game
TTITLE0=みんな/MEMORIE I・N・G
TTITLE1=みんな/メモリーズオフ外伝1 「想い出は突然に!!」
TTITLE2=Theme of Kaoru Otowa(音羽かおるのテーマ)
TTITLE3=Theme of Koyomi Kirishima(霧島小夜美のテーマ)
TTITLE4=みんな/メモリーズオフ外伝2 「いつもに一緒にいたいから…」
TTITLE5=Theme of Minamo Ibuki(伊吹みなものテーマ)
TTITLE6=Theme of Shion Futami(双海詩音のテーマ)
TTITLE7=みんな/メモリーズオフ外伝3 「いちばん大切な人」
TTITLE8=Theme of Ayaka Hizuki(桧月彩花のテーマ)
TTITLE9=Theme of Yue Imasaka(今坂唯笑のテーマ)
TTITLE10=桧月彩花（山本麻里安）/This may be the last time we can meet
EXTD=YEAR: 1999
EXTT0=
EXTT1=
EXTT2=
EXTT3=
EXTT4=
EXTT5=
EXTT6=
EXTT7=
EXTT8=
EXTT9=
EXTT10=
PLAYORDER=
